<?xml version="1.0" encoding="UTF-8"?>
<svg xmlns="http://www.w3.org/2000/svg" xmlns:xlink="http://www.w3.org/1999/xlink" width="310.029541pt" height="222.131348pt" viewBox="0 0 310.029541 222.131348">
<defs>
<clipPath id="clip-0">
<path clip-rule="nonzero" d="M 0.121094 202 L 4 202 L 4 221.265625 L 0.121094 221.265625 Z M 0.121094 202 "/>
</clipPath>
<clipPath id="clip-1">
<path clip-rule="nonzero" d="M 26 202 L 46 202 L 46 221.265625 L 26 221.265625 Z M 26 202 "/>
</clipPath>
<clipPath id="clip-2">
<path clip-rule="nonzero" d="M 66 202 L 83 202 L 83 221.265625 L 66 221.265625 Z M 66 202 "/>
</clipPath>
<clipPath id="clip-3">
<path clip-rule="nonzero" d="M 104 202 L 124 202 L 124 221.265625 L 104 221.265625 Z M 104 202 "/>
</clipPath>
<clipPath id="clip-4">
<path clip-rule="nonzero" d="M 145 202 L 164 202 L 164 221.265625 L 145 221.265625 Z M 145 202 "/>
</clipPath>
<clipPath id="clip-5">
<path clip-rule="nonzero" d="M 184 202 L 189 202 L 189 221.265625 L 184 221.265625 Z M 184 202 "/>
</clipPath>
<clipPath id="clip-6">
<path clip-rule="nonzero" d="M 250 202 L 270 202 L 270 221.265625 L 250 221.265625 Z M 250 202 "/>
</clipPath>
<clipPath id="clip-7">
<path clip-rule="nonzero" d="M 292 202 L 308.941406 202 L 308.941406 221.265625 L 292 221.265625 Z M 292 202 "/>
</clipPath>
<clipPath id="clip-8">
<path clip-rule="nonzero" d="M 209 202 L 230 202 L 230 221.265625 L 209 221.265625 Z M 209 202 "/>
</clipPath>
</defs>
<g clip-path="url(#clip-0)">
<path fill-rule="nonzero" fill="rgb(0%, 0%, 0%)" fill-opacity="1" d="M 0.121094 202.429688 L 3.960938 202.429688 L 3.960938 221.253906 L 0.121094 221.253906 Z M 0.121094 202.429688 "/>
</g>
<g clip-path="url(#clip-1)">
<path fill-rule="nonzero" fill="rgb(0%, 0%, 0%)" fill-opacity="1" d="M 26.351562 202.429688 L 33.253906 202.429688 C 35.269531 202.429688 37.019531 202.648438 38.503906 203.082031 C 39.988281 203.515625 41.21875 204.136719 42.1875 204.949219 C 43.167969 205.75 43.894531 206.730469 44.367188 207.886719 C 44.851562 209.035156 45.089844 210.328125 45.089844 211.765625 C 45.089844 213.128906 44.855469 214.394531 44.378906 215.558594 C 43.90625 216.714844 43.183594 217.71875 42.210938 218.570312 C 41.242188 219.410156 40.011719 220.074219 38.527344 220.554688 C 37.042969 221.03125 35.292969 221.265625 33.277344 221.265625 L 26.351562 221.253906 Z M 34.191406 217.953125 C 35.332031 217.953125 36.332031 217.808594 37.191406 217.519531 C 38.050781 217.222656 38.765625 216.804688 39.335938 216.269531 C 39.914062 215.730469 40.347656 215.078125 40.636719 214.316406 C 40.925781 213.554688 41.070312 212.703125 41.070312 211.765625 C 41.070312 210.839844 40.925781 210.011719 40.636719 209.269531 C 40.347656 208.523438 39.914062 207.894531 39.335938 207.378906 C 38.765625 206.859375 38.050781 206.457031 37.191406 206.175781 C 36.332031 205.894531 35.332031 205.753906 34.191406 205.753906 L 30.167969 205.753906 L 30.167969 217.953125 Z M 34.191406 217.953125 "/>
</g>
<g clip-path="url(#clip-2)">
<path fill-rule="nonzero" fill="rgb(0%, 0%, 0%)" fill-opacity="1" d="M 66.433594 202.429688 L 82.460938 202.429688 L 82.460938 205.777344 L 70.25 205.777344 L 70.25 209.535156 L 81.066406 209.535156 L 81.066406 212.679688 L 70.25 212.679688 L 70.25 217.917969 L 82.714844 217.917969 L 82.714844 221.253906 L 66.433594 221.253906 Z M 66.433594 202.429688 "/>
</g>
<g clip-path="url(#clip-3)">
<path fill-rule="nonzero" fill="rgb(0%, 0%, 0%)" fill-opacity="1" d="M 104.441406 202.429688 L 108.261719 202.429688 L 119.992188 208.574219 L 119.992188 202.429688 L 123.808594 202.429688 L 123.808594 221.253906 L 119.992188 221.253906 L 119.992188 212.621094 L 108.261719 206.511719 L 108.261719 221.253906 L 104.441406 221.253906 Z M 104.441406 202.429688 "/>
</g>
<g clip-path="url(#clip-4)">
<path fill-rule="nonzero" fill="rgb(0%, 0%, 0%)" fill-opacity="1" d="M 152.316406 205.777344 L 145.367188 205.777344 L 145.367188 202.429688 L 163.082031 202.429688 L 163.082031 205.777344 L 156.132812 205.777344 L 156.132812 221.253906 L 152.316406 221.253906 Z M 152.316406 205.777344 "/>
</g>
<g clip-path="url(#clip-5)">
<path fill-rule="nonzero" fill="rgb(0%, 0%, 0%)" fill-opacity="1" d="M 184.195312 202.429688 L 188.035156 202.429688 L 188.035156 221.253906 L 184.195312 221.253906 Z M 184.195312 202.429688 "/>
</g>
<g clip-path="url(#clip-6)">
<path fill-rule="nonzero" fill="rgb(0%, 0%, 0%)" fill-opacity="1" d="M 250.460938 202.429688 L 254.277344 202.429688 L 266.007812 208.574219 L 266.007812 202.429688 L 269.824219 202.429688 L 269.824219 221.253906 L 266.007812 221.253906 L 266.007812 212.621094 L 254.277344 206.511719 L 254.277344 221.253906 L 250.460938 221.253906 Z M 250.460938 202.429688 "/>
</g>
<g clip-path="url(#clip-7)">
<path fill-rule="nonzero" fill="rgb(0%, 0%, 0%)" fill-opacity="1" d="M 292.660156 202.429688 L 308.6875 202.429688 L 308.6875 205.777344 L 296.476562 205.777344 L 296.476562 209.535156 L 307.292969 209.535156 L 307.292969 212.679688 L 296.476562 212.679688 L 296.476562 217.917969 L 308.941406 217.917969 L 308.941406 221.253906 L 292.660156 221.253906 Z M 292.660156 202.429688 "/>
</g>
<g clip-path="url(#clip-8)">
<path fill-rule="nonzero" fill="rgb(0%, 0%, 0%)" fill-opacity="1" d="M 219.917969 202.484375 C 219.914062 202.484375 219.914062 202.484375 219.910156 202.484375 C 219.90625 202.484375 219.90625 202.484375 219.902344 202.484375 C 214.355469 202.484375 209.855469 207.113281 209.855469 212.824219 C 209.855469 215.054688 210.542969 217.121094 211.710938 218.8125 L 211.71875 218.8125 C 212.597656 219.957031 212.597656 219.980469 213.433594 220.660156 C 214.273438 221.34375 215.238281 221.496094 216.070312 220.804688 C 216.496094 220.449219 216.96875 220.175781 217.484375 219.972656 C 218.050781 219.75 218.640625 219.628906 219.242188 219.566406 C 219.464844 219.542969 219.6875 219.527344 219.910156 219.527344 C 220.132812 219.527344 220.355469 219.542969 220.578125 219.566406 C 221.179688 219.628906 221.769531 219.75 222.335938 219.972656 C 222.851562 220.175781 223.324219 220.449219 223.753906 220.804688 C 224.585938 221.496094 225.546875 221.34375 226.386719 220.660156 C 227.226562 219.980469 227.226562 219.957031 228.101562 218.8125 L 228.109375 218.8125 C 229.277344 217.121094 229.964844 215.054688 229.964844 212.824219 C 229.964844 207.113281 225.46875 202.484375 219.917969 202.484375 Z M 225.707031 214.859375 C 225.21875 216.542969 224.207031 217.796875 222.664062 218.570312 C 221.773438 219.015625 220.851562 219.222656 219.910156 219.21875 C 218.96875 219.222656 218.046875 219.015625 217.15625 218.570312 C 215.613281 217.796875 214.605469 216.542969 214.113281 214.859375 C 213.648438 213.257812 213.703125 211.660156 214.363281 210.125 C 215.207031 208.152344 216.691406 206.972656 218.742188 206.558594 C 219.132812 206.480469 219.523438 206.4375 219.910156 206.429688 C 220.296875 206.4375 220.6875 206.480469 221.078125 206.558594 C 223.128906 206.972656 224.613281 208.152344 225.460938 210.125 C 226.117188 211.660156 226.171875 213.257812 225.707031 214.859375 Z M 225.707031 214.859375 "/>
</g>
<path fill-rule="nonzero" fill="rgb(0%, 0%, 0%)" fill-opacity="1" d="M 240.167969 79.632812 C 238.21875 59.761719 230.734375 42.339844 217.25 27.746094 C 201.976562 11.214844 183.109375 1.890625 160.8125 0.257812 C 137.179688 -1.476562 116.140625 5.566406 98.378906 21.433594 C 76.738281 40.765625 66.742188 65.339844 68.746094 94.5625 C 70.246094 116.335938 79.140625 134.816406 94.238281 150.359375 C 101.28125 157.609375 111.34375 157.855469 118.464844 152.050781 C 124.859375 146.839844 132.28125 143.527344 140.3125 141.855469 C 158.640625 138.046875 175.699219 140.867188 190.9375 152.386719 C 198.246094 157.90625 207.378906 157.464844 213.894531 151.015625 C 231.46875 133.625 240.109375 112.355469 240.59375 87.648438 C 240.457031 84.910156 240.425781 82.261719 240.167969 79.636719 Z M 154.460938 133.585938 C 129.597656 133.585938 109.445312 113.011719 109.445312 87.632812 C 109.445312 62.253906 129.597656 41.675781 154.460938 41.675781 C 179.320312 41.675781 199.472656 62.253906 199.472656 87.632812 C 199.472656 113.011719 179.320312 133.585938 154.460938 133.585938 Z M 154.460938 133.585938 "/>
</svg>
