<svg width="1003" height="62" viewBox="0 0 1003 62" fill="none" xmlns="http://www.w3.org/2000/svg">
<path d="M0 0H12.4683V61.0907H0V0Z" fill="#1F143C"/>
<path d="M85.1314 0H107.527C114.068 0 119.748 0.703539 124.569 2.11062C129.389 3.5177 133.376 5.53712 136.529 8.16887C139.708 10.7746 142.066 13.9535 143.603 17.7057C145.167 21.4319 145.948 25.6271 145.948 30.2913C145.948 34.721 145.18 38.825 143.642 42.6032C142.105 46.3554 139.76 49.6126 136.607 52.3746C133.454 55.1106 129.467 57.2603 124.647 58.8237C119.826 60.3611 114.146 61.1298 107.606 61.1298L85.1314 61.0907V0ZM110.576 50.3812C114.276 50.3812 117.52 49.9122 120.308 48.9742C123.096 48.0101 125.416 46.6551 127.266 44.9093C129.142 43.1634 130.549 41.0528 131.487 38.5774C132.425 36.102 132.894 33.34 132.894 30.2913C132.894 27.2947 132.425 24.5978 131.487 22.2006C130.549 19.7773 129.142 17.7318 127.266 16.0642C125.416 14.3704 123.096 13.0676 120.308 12.1556C117.52 11.2436 114.276 10.7876 110.576 10.7876H97.5215V50.3812H110.576Z" fill="#1F143C"/>
<path d="M215.211 0H267.234V10.8658H227.601V23.0605H262.7V33.2618H227.601V50.264H268.055V61.0907H215.211V0Z" fill="#1F143C"/>
<path d="M338.568 0H350.958L389.028 19.9336V0H401.418V61.0907H389.028V33.0664L350.958 13.25V61.0907H338.568V0Z" fill="#1F143C"/>
<path d="M493.936 10.8658H471.384V0H528.879V10.8658H506.326V61.0907H493.936V10.8658Z" fill="#1F143C"/>
<path d="M597.399 0H609.867V61.0907H597.399V0Z" fill="#1F143C"/>
<path d="M812.454 0H824.844L862.913 19.9336V0H875.303V61.0907H862.913V33.0664L824.844 13.25V61.0907H812.454V0Z" fill="#1F143C"/>
<path d="M949.412 0H1001.44V10.8658H961.802V23.0605H996.901V33.2618H961.802V50.264H1002.26V61.0907H949.412V0Z" fill="#1F143C"/>
<path d="M713.337 0.176862C713.328 0.176862 713.319 0.176862 713.311 0.176862C713.302 0.176862 713.293 0.176862 713.284 0.176862C695.276 0.176862 680.678 15.2007 680.678 33.7339C680.678 40.9762 682.908 47.6825 686.699 53.1661H686.731C689.572 56.887 689.572 56.9569 692.295 59.1667C695.021 61.3777 698.143 61.878 700.841 59.635C702.23 58.4811 703.768 57.5922 705.434 56.9364C707.275 56.2113 709.191 55.8214 711.146 55.6129C711.869 55.5357 712.591 55.4916 713.311 55.4827C714.031 55.4916 714.752 55.5357 715.475 55.6129C717.43 55.8214 719.346 56.2113 721.187 56.9364C722.853 57.5922 724.391 58.4811 725.78 59.635C728.478 61.878 731.6 61.3777 734.326 59.1667C737.049 56.9572 737.049 56.887 739.89 53.1661H739.923C743.713 47.6828 745.943 40.9762 745.943 33.7339C745.943 15.2007 731.345 0.176862 713.337 0.176862ZM732.122 40.3399C730.532 45.7988 727.254 49.8762 722.253 52.3743C719.353 53.8226 716.361 54.5029 713.311 54.4843C710.26 54.5029 707.268 53.8226 704.368 52.3743C699.367 49.8762 696.089 45.7986 694.499 40.3399C692.984 35.1383 693.164 29.9561 695.302 24.9714C698.044 18.5759 702.865 14.7422 709.516 13.4004C710.79 13.1434 712.056 13.0028 713.31 12.9841C714.565 13.003 715.831 13.1434 717.104 13.4004C723.756 14.7422 728.576 18.5759 731.319 24.9714C733.457 29.9561 733.637 35.1386 732.122 40.3399Z" fill="#1F143C"/>
</svg>
