<svg width="185" height="168" viewBox="0 0 185 168" fill="none" xmlns="http://www.w3.org/2000/svg">
<path d="M184.282 85.4821C182.188 64.1526 174.155 45.4501 159.68 29.784C143.284 12.0394 123.032 2.02815 99.0967 0.275334C73.7279 -1.58463 51.1427 5.97736 32.0781 23.0063C8.84575 43.7594 -1.88331 70.1374 0.270219 101.508C1.87733 124.882 11.4278 144.72 27.6339 161.404C35.1938 169.187 45.9935 169.452 53.6391 163.221C60.5047 157.624 68.4695 154.069 77.0922 152.276C96.7653 148.185 115.076 151.213 131.436 163.579C139.279 169.506 149.082 169.03 156.078 162.109C174.944 143.441 184.22 120.609 184.741 94.0855C184.591 91.1456 184.558 88.302 184.28 85.4843L184.282 85.4821ZM92.2783 143.398C65.5917 143.398 43.9579 121.312 43.9579 94.0684C43.9579 66.8246 65.5917 44.7387 92.2783 44.7387C118.965 44.7387 140.599 66.8246 140.599 94.0684C140.599 121.312 118.965 143.398 92.2783 143.398Z" fill="white"/>
</svg>
